<?xml version="1.0" encoding="iso-8859-1"?>
<!-- Generator: Adobe Illustrator 19.0.0, SVG Export Plug-In . SVG Version: 6.00 Build 0)  -->
<svg xmlns="http://www.w3.org/2000/svg" xmlns:xlink="http://www.w3.org/1999/xlink" version="1.1" id="Layer_1" x="0px" y="0px" viewBox="0 0 512 512" style="enable-background:new 0 0 512 512;" xml:space="preserve" width="512px" height="512px">
<g>
	<g>
		<g>
			<path d="M475.344,256.417c-13.423-63.962-55.712-116.16-112.677-145.443V10.671c0-3.708-1.917-7.146-5.073-9.083     c-3.146-1.927-7.094-2.104-10.396-0.438L284.72,32.66c-7.595-6.965-17.624-11.323-28.72-11.323     c-11.096,0-21.125,4.358-28.72,11.323L164.802,1.15c-3.302-1.677-7.26-1.51-10.396,0.438c-3.156,1.938-5.073,5.375-5.073,9.083     v100.303c-56.965,29.283-99.254,81.48-112.677,145.443C15.969,259.354,0,277.177,0,298.667c0,21.49,15.969,39.313,36.656,42.25     C57.573,440.584,148.375,512,256,512s198.427-71.417,219.344-171.083c20.688-2.938,36.656-20.76,36.656-42.25     C512,277.177,496.031,259.354,475.344,256.417z M256,42.671c11.76,0,21.333,9.573,21.333,21.333     c0,11.755-9.563,21.32-21.318,21.331c-0.005,0-0.01-0.001-0.01-0.001s-0.016,0.001-0.021,0.001     c-11.755-0.01-21.318-9.576-21.318-21.331C234.667,52.244,244.24,42.671,256,42.671z M469.531,320.011l-2.135-0.26     c-5.594-0.625-10.542,3.385-11.448,8.875C440.375,422.521,356.281,490.667,256,490.667S71.625,422.521,56.052,328.625     c-0.854-5.167-7.031-8.667-12.375-8.667c-0.344,0-0.677,0.01-1.01,0.042c-11.76,0-21.333-9.573-21.333-21.333     c0-11.76,9.573-21.333,21.135-21.344l2.135,0.26c5.354,0.448,10.542-3.385,11.448-8.875     c13.341-80.443,77.034-141.833,158.052-157.819c-3.664,5.621-6.77,11.592-8.771,18.007c-4.75,15.25-3.167,31.177,4.458,44.833     c7.604,13.656,20.313,23.375,35.792,27.354c4.146,1.063,8.313,1.573,12.458,1.573c22.104,0,42.979-14.479,49.75-36.26     c3.354-10.771,2.229-22.031-3.167-31.698c-5.375-9.677-14.375-16.552-25.292-19.365c-5.792-1.469-11.521,1.969-13,7.677     c-1.458,5.708,1.979,11.521,7.667,12.99c5.229,1.333,9.479,4.563,12,9.083c2.521,4.51,3.021,9.823,1.417,14.969     c-4.729,15.188-21.208,24.333-36.521,20.365c-9.75-2.51-17.729-8.573-22.479-17.073c-4.75-8.51-5.708-18.49-2.708-28.104     c3.521-11.281,10.979-21.24,21-28.031c0.063-0.042,0.09-0.112,0.151-0.155c3.039-0.128,6.043-0.385,9.113-0.385l0.027,0.003     l0.027-0.003c100.27,0.013,184.349,68.154,199.921,162.04c0.906,5.49,5.833,9.292,11.448,8.875l1.938-0.25     c11.76,0,21.333,9.573,21.333,21.333C490.667,310.427,481.094,320,469.531,320.011z" fill="#333333"/>
			<path d="M146.083,242.334c0.333-0.313,8.375-7.667,24.583-7.667c16.208,0,24.25,7.354,24.458,7.542     c2.083,2.083,4.813,3.125,7.542,3.125c2.729,0,5.458-1.042,7.542-3.125c4.167-4.167,4.167-10.917,0-15.083     c-1.417-1.417-14.521-13.792-39.542-13.792c-25.021,0-38.125,12.375-39.542,13.792c-4.125,4.115-4.104,10.708-0.063,14.896     C135.125,246.188,141.833,246.302,146.083,242.334z" fill="#333333"/>
			<path d="M341.334,213.334c-25.021,0-38.125,12.375-39.542,13.792c-4.125,4.115-4.104,10.708-0.063,14.896     c4.063,4.167,10.771,4.281,15.021,0.313c0.333-0.313,8.375-7.667,24.583-7.667c16.208,0,24.25,7.354,24.458,7.542     c2.083,2.083,4.813,3.125,7.542,3.125c2.729,0,5.458-1.042,7.542-3.125c4.167-4.167,4.167-10.917,0-15.083     C379.459,225.709,366.354,213.334,341.334,213.334z" fill="#333333"/>
			<path d="M169.125,315.198c-1.708-12.823-4.563-34.292,0.313-43.563c2.167-4.094,1.417-9.125-1.813-12.427     c-3.25-3.333-8.25-4.156-12.396-2.083c-39.646,19.823-48.563,60.76-48.563,73.542c0,17.646,14.354,32,32,32     c17.646,0,32-14.354,32-32C170.667,327.125,169.979,321.657,169.125,315.198z" fill="#333333"/>
			<path d="M256,320c-47.062,0-85.333,38.281-85.333,85.333c0,3.438,0.438,6.76,1.125,11.615c0.5,3.646,2.833,6.781,6.188,8.292     c1.396,0.625,2.896,0.938,4.375,0.938c2.083,0,4.146-0.615,5.938-1.802c36.625-24.563,98.792-24.563,135.417,0     c3,2.021,7.021,1.604,10.396,0.083c3.354-1.5,5.813-5.406,6.333-9.042c0.458-3.323,0.896-6.646,0.896-10.083     C341.334,358.282,303.063,320,256,320z" fill="#333333"/>
		</g>
	</g>
</g>
<g>
</g>
<g>
</g>
<g>
</g>
<g>
</g>
<g>
</g>
<g>
</g>
<g>
</g>
<g>
</g>
<g>
</g>
<g>
</g>
<g>
</g>
<g>
</g>
<g>
</g>
<g>
</g>
<g>
</g>
</svg>
