<?xml version="1.0" encoding="iso-8859-1"?>
<!-- Generator: Adobe Illustrator 19.0.0, SVG Export Plug-In . SVG Version: 6.00 Build 0)  -->
<svg xmlns="http://www.w3.org/2000/svg" xmlns:xlink="http://www.w3.org/1999/xlink" version="1.1" id="Layer_1" x="0px" y="0px" viewBox="0 0 512.004 512.004" style="enable-background:new 0 0 512.004 512.004;" xml:space="preserve" width="512px" height="512px">
<g>
	<g>
		<g>
			<path d="M378.148,278.525c-5.271-2.656-11.625-0.563-14.313,4.646c-0.083,0.156-8.188,15.5-22.5,15.5     c-14.313,0-22.417-15.344-22.458-15.438c-2.646-5.281-9.042-7.396-14.313-4.771c-5.271,2.635-7.396,9.042-4.771,14.313     c0.563,1.115,13.938,27.229,41.542,27.229c27.604,0,40.979-26.115,41.542-27.229     C385.502,287.525,383.377,281.181,378.148,278.525z" fill="#333333"/>
			<path d="M207.481,278.525c-5.271-2.656-11.625-0.563-14.313,4.646c-0.083,0.156-8.188,15.5-22.5,15.5     s-22.417-15.344-22.458-15.438c-2.646-5.281-9.021-7.396-14.313-4.771c-5.271,2.635-7.396,9.042-4.771,14.313     c0.563,1.115,13.938,27.229,41.542,27.229c27.604,0,40.979-26.115,41.542-27.229C214.835,287.525,212.71,281.181,207.481,278.525     z" fill="#333333"/>
			<path d="M256.002,384.004c-11.771,0-21.333,9.573-21.333,21.333c0,11.76,9.563,21.333,21.333,21.333     c11.771,0,21.333-9.573,21.333-21.333C277.335,393.577,267.773,384.004,256.002,384.004z" fill="#333333"/>
			<path d="M480.002,42.671h4.083L470.46,69.9c-1.646,3.302-1.479,7.229,0.458,10.375c1.958,3.146,5.396,5.063,9.083,5.063h21.333     c5.896,0,10.667-4.771,10.667-10.667c0-5.896-4.771-10.667-10.667-10.667h-4.083l13.625-27.229     c1.646-3.302,1.479-7.229-0.458-10.375c-1.958-3.146-5.396-5.063-9.083-5.063h-21.333c-5.896,0-10.667,4.771-10.667,10.667     C469.335,37.9,474.106,42.671,480.002,42.671z" fill="#333333"/>
			<path d="M426.669,96.004h1.396l-10.271,15.417c-2.188,3.271-2.396,7.479-0.521,10.948c1.854,3.469,5.458,5.635,9.396,5.635     h21.333c5.896,0,10.667-4.771,10.667-10.667s-4.771-10.667-10.667-10.667h-1.396l10.271-15.417     c2.188-3.271,2.396-7.479,0.521-10.948c-1.854-3.469-5.458-5.635-9.396-5.635h-21.333c-5.896,0-10.667,4.771-10.667,10.667     S420.773,96.004,426.669,96.004z" fill="#333333"/>
			<path d="M475.346,256.421c-13.423-63.962-55.712-116.16-112.677-145.443V10.671c0-3.708-1.917-7.146-5.073-9.083     c-3.146-1.927-7.094-2.104-10.396-0.438l-62.478,31.51c-7.595-6.965-17.624-11.323-28.72-11.323     c-11.096,0-21.125,4.358-28.72,11.323L164.804,1.15c-3.302-1.677-7.26-1.51-10.396,0.438c-3.156,1.938-5.073,5.375-5.073,9.083     v100.307c-56.965,29.283-99.254,81.48-112.677,145.443c-20.687,2.938-36.656,20.76-36.656,42.25     c0,21.49,15.969,39.313,36.656,42.25c20.917,99.667,111.719,171.083,219.344,171.083s198.427-71.417,219.344-171.083     c20.688-2.938,36.656-20.76,36.656-42.25C512.002,277.181,496.033,259.358,475.346,256.421z M296.332,50.69l45.004-22.697v72.021     l-45.004-22.697c1.396-4.215,2.337-8.637,2.337-13.314C298.669,59.327,297.727,54.905,296.332,50.69z M256.002,42.671     c11.76,0,21.333,9.573,21.333,21.333c0,11.76-9.573,21.333-21.333,21.333c-11.76,0-21.333-9.573-21.333-21.333     C234.669,52.244,244.242,42.671,256.002,42.671z M170.669,27.994l45.004,22.697c-1.396,4.215-2.337,8.637-2.337,13.314     c0,4.677,0.941,9.099,2.337,13.314l-45.004,22.697V27.994z M469.533,320.015l-2.135-0.26c-5.594-0.625-10.542,3.385-11.448,8.875     c-15.573,93.896-99.667,162.042-199.948,162.042S71.627,422.525,56.054,328.629c-0.854-5.167-7.031-8.667-12.375-8.667     c-0.344,0-0.677,0.01-1.01,0.042c-11.76,0-21.333-9.573-21.333-21.333c0-11.76,9.573-21.333,21.135-21.344l2.135,0.26     c5.354,0.448,10.542-3.385,11.448-8.875c13.341-80.441,77.033-141.835,158.051-157.819c-3.665,5.62-6.772,11.59-8.77,17.996     c-4.75,15.25-3.167,31.167,4.448,44.833c7.615,13.667,20.323,23.385,35.802,27.365c4.146,1.063,8.323,1.573,12.458,1.573     c22.094,0,42.958-14.479,49.75-36.26c3.354-10.771,2.229-22.031-3.156-31.698c-5.396-9.677-14.385-16.552-25.313-19.365     c-5.708-1.458-11.51,1.969-12.99,7.677c-1.469,5.708,1.969,11.521,7.677,12.99c5.219,1.333,9.469,4.563,11.99,9.083     c2.521,4.51,3.021,9.823,1.417,14.958c-4.719,15.208-21.146,24.344-36.521,20.375c-9.76-2.51-17.74-8.573-22.49-17.083     c-4.74-8.51-5.698-18.49-2.698-28.094c3.51-11.281,10.969-21.229,21.01-28.031c0.063-0.043,0.091-0.112,0.152-0.155     c3.044-0.128,6.053-0.387,9.129-0.387c100.281,0,184.375,68.146,199.948,162.042c0.906,5.49,5.833,9.292,11.448,8.875l1.938-0.25     c11.76,0,21.333,9.573,21.333,21.333C490.669,310.431,481.096,320.004,469.533,320.015z" fill="#333333"/>
		</g>
	</g>
</g>
<g>
</g>
<g>
</g>
<g>
</g>
<g>
</g>
<g>
</g>
<g>
</g>
<g>
</g>
<g>
</g>
<g>
</g>
<g>
</g>
<g>
</g>
<g>
</g>
<g>
</g>
<g>
</g>
<g>
</g>
</svg>
